<svg xmlns="http://www.w3.org/2000/svg" version="1.1" xmlns:xlink="http://www.w3.org/1999/xlink" xmlns:svgjs="http://svgjs.dev/svgjs" width="1000" height="1000"><style>
    #light-icon {
      display: inline;
    }
    #dark-icon {
      display: none;
    }

    @media (prefers-color-scheme: dark) {
      #light-icon {
        display: none;
      }
      #dark-icon {
        display: inline;
      }
    }
  </style><g id="light-icon"><svg xmlns="http://www.w3.org/2000/svg" version="1.1" xmlns:xlink="http://www.w3.org/1999/xlink" xmlns:svgjs="http://svgjs.dev/svgjs" width="1000" height="1000"><g clip-path="url(#SvgjsClipPath1112)"><rect width="1000" height="1000" fill="#000000"></rect><g transform="matrix(0.9375,0,0,0.9375,50,50)"><svg xmlns="http://www.w3.org/2000/svg" version="1.1" xmlns:xlink="http://www.w3.org/1999/xlink" xmlns:svgjs="http://svgjs.dev/svgjs" width="960px" height="960px"><svg xmlns="http://www.w3.org/2000/svg" xmlns:xlink="http://www.w3.org/1999/xlink" width="960px" height="960px" viewBox="0 0 960 960">
    <g id="61e1cb77-f314-49e1-ad9d-e093e501a3e0">
<path style="stroke: rgb(114,114,114); stroke-width: 0; stroke-dasharray: none; stroke-linecap: butt; stroke-dashoffset: 0; stroke-linejoin: round; stroke-miterlimit: 4; fill: rgb(114,114,114); fill-rule: nonzero; opacity: 1;" vector-effect="non-scaling-stroke" transform="matrix(1 0 0 1 -1095.044391 0)  translate(0, 0)" d="" stroke-linecap="round"></path>
</g>
<g id="136c3d88-1b45-4c9d-936b-ef8eefebdd14">
<g>
		<g id="45bed532-05e3-4448-8821-d2d8bb6f2031">
<path style="stroke: rgb(193,193,193); stroke-width: 0; stroke-dasharray: none; stroke-linecap: butt; stroke-dashoffset: 0; stroke-linejoin: miter; stroke-miterlimit: 4; fill: rgb(255,255,255); fill-rule: nonzero; opacity: 1;" d="M313.07211,564.9583c-17.5444,10.19538 -33.47727,15.63543 -47.7937,16.32888c-14.31755,0.67111 -28.73224,-3.28736 -43.249,-11.88413l-14.19294,-8.38907l37.89938,-21.94177l18.07147,10.64446c7.22399,4.23742 13.91266,4.57463 20.066,1.01166c3.44193,-1.99901 5.07445,-3.82695 4.89266,-5.49253c-0.16057,-1.68903 -2.05909,-3.56878 -5.70536,-5.65666c-4.7551,-2.77127 -9.43337,-4.63293 -14.0299,-5.57626c-4.61016,-0.94713 -9.12652,-1.36162 -13.51803,-1.24951c-4.36159,0.08375 -11.73074,0.5552 -22.10253,1.42307l-29.12373,2.22638c-22.28454,1.81277 -39.16455,-0.67464 -50.64495,-7.47094c-12.37549,-7.32469 -18.05071,-15.06501 -17.00331,-23.22206c1.07465,-8.14946 8.83148,-16.35989 23.2618,-24.62638c17.33447,-9.91622 33.2803,-15.00766 47.83144,-15.30537c14.61323,-0.30977 29.27605,3.86466 44.00207,12.52709l-39.23823,22.47887l-10.20006,-5.72746c-1.91883,-1.122 -4.14631,-1.61064 -6.69113,-1.461c-2.55353,0.15455 -5.07959,0.94803 -7.58689,2.38537c-2.99884,1.7261 -4.63539,3.38409 -4.90092,4.96905c-0.27804,1.60349 0.65301,3.03011 2.8117,4.29236c4.73277,2.77239 13.21476,3.60204 25.45357,2.46172l38.65469,-3.34325c9.09994,-0.78188 17.1011,-1.1506 23.96754,-1.10885c6.88386,0.03193 13.72014,0.81402 20.52137,2.32773c6.78001,1.53716 13.3865,4.17108 19.82057,7.9241c14.34703,8.33659 21.73562,16.67185 22.14722,24.99326c0.42634,8.34755 -7.38097,17.16052 -23.42081,26.46124zM416.72229,505.13404c-15.9523,9.17097 -31.17231,14.00224 -45.6502,14.51121c-14.54378,0.53466 -28.51405,-3.04304 -41.89832,-10.75163l-106.60827,-62.02339l37.46166,-21.293l105.66247,61.01842c4.5818,2.70829 8.76696,4.46923 12.5517,5.29643c3.79345,0.82229 7.64875,0.10563 11.57084,-2.14128c3.91337,-2.24199 5.20934,-4.44267 3.87049,-6.59219c-1.36989,-2.1435 -4.42882,-4.5742 -9.20402,-7.29968l-105.66672,-60.92417l37.74595,-21.33856l106.79988,61.46753c13.3597,7.66504 19.59681,15.62802 18.6939,23.89874c-0.96276,8.32745 -9.40588,17.05131 -25.32937,26.17159zM331.04715,385.43421l51.07705,-28.6635c15.42569,-8.59836 30.24416,-12.5946 44.47773,-11.98984c14.15027,0.64027 28.47899,5.11798 42.98995,13.4195c14.64049,8.2055 22.73769,16.02621 24.29541,23.4485c1.51908,7.45557 -5.34846,15.45139 -20.60264,23.98744l-15.74081,8.83352l58.03511,32.76325l-38.12472,21.64407zM433.33509,398.21717c4.66465,-2.61986 7.43346,-4.91657 8.29394,-6.87158c0.92145,-1.98941 0.47903,-3.85241 -1.33216,-5.59771c-1.81119,-1.74531 -4.9782,-3.91985 -9.50975,-6.51871c-6.11293,-3.50937 -11.43037,-5.52713 -15.94963,-6.08924c-4.54048,-0.53866 -9.51131,0.70394 -14.9212,3.73272l-4.29012,2.40859l35.45688,20.19483zM436.79661,326.40053l51.22155,-28.10206c15.5952,-8.52176 30.51885,-12.474 44.77855,-11.88398c14.20142,0.58846 28.63018,4.91787 43.2901,12.97464c14.63267,8.04917 22.71446,15.74079 24.25901,23.07867c1.54946,7.34659 -5.30402,15.26558 -20.56914,23.76187l-15.87972,8.83151l58.3165,32.1223l-38.40477,21.59539zM539.56761,339.08322c4.75398,-2.62433 7.49398,-4.87034 8.23364,-6.73423c0.97482,-1.99655 0.56837,-3.85687 -1.25042,-5.57493c-1.75781,-1.75245 -4.9188,-3.89595 -9.47915,-6.44412c-6.14554,-3.44505 -11.50161,-5.42953 -16.05951,-5.95837c-4.56661,-0.52392 -9.55218,0.69255 -14.9643,3.67666l-4.33591,2.38849l35.57257,19.91143zM690.31925,348.93697l-147.19253,-80.70361l38.92713,-21.17821l122.35266,66.42584l40.05114,-22.34041l25.06052,13.40701zM785.27752,295.72658l-48.62899,-25.89906l-129.91161,-36.16804l38.55708,-20.87761l60.83027,20.78439l-39.05247,-32.55267l38.50549,-20.74518l67.79591,69.19851l48.6674,25.68221z" stroke-linecap="round"></path>
</g>
</g>
</g>
<g id="806ff011-b6d6-488f-8a61-b0463df63887">
<path style="stroke: rgb(193,193,193); stroke-width: 0; stroke-dasharray: none; stroke-linecap: butt; stroke-dashoffset: 0; stroke-linejoin: miter; stroke-miterlimit: 4; fill: rgb(114,114,114); fill-rule: nonzero; opacity: 1;" transform="matrix(1 0 0 1 -1095.044391 0)  translate(0, 0)" d="" stroke-linecap="round"></path>
</g>
<g id="05b3afe5-ee96-43a9-9aea-3ebe3f51293d">
<path style="stroke: rgb(193,193,193); stroke-width: 0; stroke-dasharray: none; stroke-linecap: butt; stroke-dashoffset: 0; stroke-linejoin: miter; stroke-miterlimit: 4; fill: rgb(193,193,193); fill-rule: nonzero; opacity: 1;" transform="matrix(1 0 0 1 -1095.044391 0)  translate(0, 0)" d="" stroke-linecap="round"></path>
</g>
<g id="a74feeee-3b59-4730-b852-9ee93521a4b1">
<path style="stroke: rgb(114,114,114); stroke-width: 0; stroke-dasharray: none; stroke-linecap: butt; stroke-dashoffset: 0; stroke-linejoin: round; stroke-miterlimit: 4; fill: rgb(114,114,114); fill-rule: nonzero; opacity: 1;" vector-effect="non-scaling-stroke" transform="matrix(1 0 0 1 -1095.044391 0)  translate(0, 0)" d="" stroke-linecap="round"></path>
</g>
<g id="16a2c5b9-4119-49ab-abfa-30036e32549e">
<g>
		<g id="6fb2d87d-4165-4e83-ab64-05e2e567951e">
<path style="stroke: rgb(193,193,193); stroke-width: 0; stroke-dasharray: none; stroke-linecap: butt; stroke-dashoffset: 0; stroke-linejoin: miter; stroke-miterlimit: 4; fill: rgb(255,255,255); fill-rule: nonzero; opacity: 1;" d="M150.94724,632.19149l-1.68519,97.08446l-23.73542,-13.28546l1.99021,-96.8909c-0.00468,-0.22821 -0.02708,-0.46569 -0.10681,-0.50744l-13.63552,-7.54576l1.46151,-66.21657l50.55465,28.14041l-1.16239,66.48607l-13.57986,-7.65207c-0.0443,-0.02319 -0.10585,0.15905 -0.10117,0.38725zM196.62867,755.67941l0.51083,-53.40602c-0.00046,-0.21471 -0.06715,-0.47538 -0.11145,-0.49858l-7.81337,-4.35061c-0.06201,-0.03247 -0.05733,0.19574 -0.06573,0.40581l-0.50155,53.3883l-23.76789,-13.22344l2.56192,-164.08131l23.14654,13.20288l-0.89075,63.91922c-0.0219,0.21429 -0.04802,0.41508 0.02286,0.45219l7.72858,4.34007c0.09745,0.05102 0.14129,-0.14049 0.16318,-0.35478l0.7735,-63.86774l23.30847,12.91517l-1.38917,164.51474zM246.44165,686.15324l23.84549,13.13991l-0.20547,31.32894l-23.85945,-13.3504c-0.06201,-0.03247 -0.06201,-0.03247 -0.0611,0.39695l-0.07926,12.37508l25.09722,14.13393l-0.36566,53.77551l-48.19402,-27.60426l1.32377,-164.60542l47.6769,25.35813l-0.39254,56.88816l-24.75037,-13.54597l-0.0803,11.23447c-0.01722,0.4425 -0.01722,0.4425 0.0448,0.47497z" stroke-linecap="round"></path>
</g>
</g>
</g>
<g id="9b240670-6691-45da-abb4-b6c3f8171a2d">
<path style="stroke: rgb(193,193,193); stroke-width: 0; stroke-dasharray: none; stroke-linecap: butt; stroke-dashoffset: 0; stroke-linejoin: miter; stroke-miterlimit: 4; fill: rgb(114,114,114); fill-rule: nonzero; opacity: 1;" transform="matrix(1 0 0 1 -1095.044391 0)  translate(0, 0)" d="" stroke-linecap="round"></path>
</g>
<g id="f0f31798-792c-4f89-92ac-36bf4f684f46">
<path style="stroke: rgb(193,193,193); stroke-width: 0; stroke-dasharray: none; stroke-linecap: butt; stroke-dashoffset: 0; stroke-linejoin: miter; stroke-miterlimit: 4; fill: rgb(193,193,193); fill-rule: nonzero; opacity: 1;" transform="matrix(1 0 0 1 -1095.044391 0)  translate(0, 0)" d="" stroke-linecap="round"></path>
</g>
<g id="32898dd5-1e13-4878-a828-53dc7024c241">
<path style="stroke: rgb(114,114,114); stroke-width: 0; stroke-dasharray: none; stroke-linecap: butt; stroke-dashoffset: 0; stroke-linejoin: round; stroke-miterlimit: 4; fill: rgb(114,114,114); fill-rule: nonzero; opacity: 1;" vector-effect="non-scaling-stroke" transform="matrix(1 0 0 1 -1095.044391 0)  translate(0, 0)" d="" stroke-linecap="round"></path>
</g>
<g id="93b4145e-d886-41d7-b031-4a5cc2876281">
<g>
		<g id="d542eae5-0770-425d-afe7-677c5e8f9881">
<path style="stroke: rgb(193,193,193); stroke-width: 0; stroke-dasharray: none; stroke-linecap: butt; stroke-dashoffset: 0; stroke-linejoin: miter; stroke-miterlimit: 4; fill: rgb(255,255,255); fill-rule: nonzero; opacity: 1;" d="M379.40111,653.67366l0.27167,54.48861l-38.76089,23.58209l0.27416,51.24557l-38.27043,23.6611l-1.3658,-198.19786l77.87798,-44.97578l0.37106,76.37357l-39.31308,23.40017l0.06019,13.65302zM382.90598,684.75691l-0.54857,-122.96636l38.41755,-22.15187l0.3415,106.75455c-0.00248,10.3791 3.59312,13.40005 7.05275,11.31373c3.44762,-2.06745 6.91362,-9.33473 6.79083,-19.35886l-0.24204,-106.74423l38.45014,-22.13643l0.04829,120.88768c0.31131,53.66028 -22.05838,94.28982 -44.75099,108.24782c-22.55711,13.91172 -45.2981,0.68375 -45.55947,-53.84602zM536.9114,549.80885l0.16853,112.9216l-38.31324,23.39526l-0.23696,-113.63848c-0.00509,-0.24181 -0.14396,-0.41506 -0.20914,-0.38764l-22.35286,13.24121l-0.11013,-77.41622l83.49699,-47.97223l0.06243,76.09224l-22.33226,13.1589c-0.06003,0.036 -0.1956,0.37382 -0.17336,0.60535zM562.22495,577.04888l-0.02995,-118.71822l38.36437,-22.085l0.07311,103.13758c0.06792,10.01039 3.41314,13.04157 6.98767,10.93299c3.54366,-2.10173 6.96503,-9.13235 7.02568,-18.92834l-0.15885,-103.20277l38.25808,-22.24281l0.26522,117.39945c0.08872,52.16133 -22.69923,91.95729 -45.28887,105.62033c-22.87437,13.86877 -45.40624,1.08674 -45.49647,-51.91321zM746.17438,404.72984c0.13213,28.39506 -8.48353,62.50236 -26.04577,72.94072l-6.86435,4.06974l0.02035,0.96726l22.84,-13.55666l15.05071,64.66715l-46.43647,27.83514l-10.97129,-69.60877l10.71332,-6.34289c5.02391,-2.97773 7.54051,-13.15043 7.36592,-21.74427c0.06382,-8.70183 -2.47436,-15.88994 -7.40049,-12.9825l-10.57267,6.24688c-0.08576,0.05143 -0.18359,0.35496 -0.23853,0.63277l0.23261,110.30626l-37.05243,22.17278l-0.31386,-186.58544l65.29525,-38.32806c16.0957,-9.50061 24.22471,12.16332 24.37771,39.30988zM789.21607,401.87781l38.62187,-23.11393l0.31242,34.66509l-38.72651,23.21166c-0.10291,0.06171 -0.10291,0.06171 -0.10989,0.55563l0.08074,13.80394l40.81909,-24.46653l0.53972,59.50501l-78.51476,47.14165l-0.93844,-185.19645l77.23683,-46.0255l0.5612,62.94356l-40.08839,23.99337l0.05359,12.57258c-0.06187,0.53849 -0.06187,0.53849 0.15254,0.40992z" stroke-linecap="round"></path>
</g>
</g>
</g>
<g id="3860e175-214a-47f8-88c8-1d927e9b0298">
<path style="stroke: rgb(193,193,193); stroke-width: 0; stroke-dasharray: none; stroke-linecap: butt; stroke-dashoffset: 0; stroke-linejoin: miter; stroke-miterlimit: 4; fill: rgb(114,114,114); fill-rule: nonzero; opacity: 1;" transform="matrix(1 0 0 1 -1095.044391 0)  translate(0, 0)" d="" stroke-linecap="round"></path>
</g>
<g id="92a3eee6-c637-4f1f-9ea9-7b74c6a46725">
<path style="stroke: rgb(193,193,193); stroke-width: 0; stroke-dasharray: none; stroke-linecap: butt; stroke-dashoffset: 0; stroke-linejoin: miter; stroke-miterlimit: 4; fill: rgb(193,193,193); fill-rule: nonzero; opacity: 1;" transform="matrix(1 0 0 1 -1095.044391 0)  translate(0, 0)" d="" stroke-linecap="round"></path>
</g>

  </svg></svg></g></g><defs><clipPath id="SvgjsClipPath1112"><rect width="1000" height="1000" x="0" y="0" rx="350" ry="350"></rect></clipPath></defs></svg></g><g id="dark-icon"><svg xmlns="http://www.w3.org/2000/svg" version="1.1" xmlns:xlink="http://www.w3.org/1999/xlink" xmlns:svgjs="http://svgjs.dev/svgjs" width="1000" height="1000"><g><g transform="matrix(1.0416666666666667,0,0,1.0416666666666667,-5.684341886080802e-14,-5.684341886080802e-14)"><svg xmlns="http://www.w3.org/2000/svg" version="1.1" xmlns:xlink="http://www.w3.org/1999/xlink" xmlns:svgjs="http://svgjs.dev/svgjs" width="960px" height="960px"><svg xmlns="http://www.w3.org/2000/svg" xmlns:xlink="http://www.w3.org/1999/xlink" width="960px" height="960px" viewBox="0 0 960 960">
    <g id="61e1cb77-f314-49e1-ad9d-e093e501a3e0">
<path style="stroke: rgb(114,114,114); stroke-width: 0; stroke-dasharray: none; stroke-linecap: butt; stroke-dashoffset: 0; stroke-linejoin: round; stroke-miterlimit: 4; fill: rgb(114,114,114); fill-rule: nonzero; opacity: 1;" vector-effect="non-scaling-stroke" transform="matrix(1 0 0 1 -1095.044391 0)  translate(0, 0)" d="" stroke-linecap="round"></path>
</g>
<g id="136c3d88-1b45-4c9d-936b-ef8eefebdd14">
<g>
		<g id="45bed532-05e3-4448-8821-d2d8bb6f2031">
<path style="stroke: rgb(193,193,193); stroke-width: 0; stroke-dasharray: none; stroke-linecap: butt; stroke-dashoffset: 0; stroke-linejoin: miter; stroke-miterlimit: 4; fill: rgb(255,255,255); fill-rule: nonzero; opacity: 1;" d="M313.07211,564.9583c-17.5444,10.19538 -33.47727,15.63543 -47.7937,16.32888c-14.31755,0.67111 -28.73224,-3.28736 -43.249,-11.88413l-14.19294,-8.38907l37.89938,-21.94177l18.07147,10.64446c7.22399,4.23742 13.91266,4.57463 20.066,1.01166c3.44193,-1.99901 5.07445,-3.82695 4.89266,-5.49253c-0.16057,-1.68903 -2.05909,-3.56878 -5.70536,-5.65666c-4.7551,-2.77127 -9.43337,-4.63293 -14.0299,-5.57626c-4.61016,-0.94713 -9.12652,-1.36162 -13.51803,-1.24951c-4.36159,0.08375 -11.73074,0.5552 -22.10253,1.42307l-29.12373,2.22638c-22.28454,1.81277 -39.16455,-0.67464 -50.64495,-7.47094c-12.37549,-7.32469 -18.05071,-15.06501 -17.00331,-23.22206c1.07465,-8.14946 8.83148,-16.35989 23.2618,-24.62638c17.33447,-9.91622 33.2803,-15.00766 47.83144,-15.30537c14.61323,-0.30977 29.27605,3.86466 44.00207,12.52709l-39.23823,22.47887l-10.20006,-5.72746c-1.91883,-1.122 -4.14631,-1.61064 -6.69113,-1.461c-2.55353,0.15455 -5.07959,0.94803 -7.58689,2.38537c-2.99884,1.7261 -4.63539,3.38409 -4.90092,4.96905c-0.27804,1.60349 0.65301,3.03011 2.8117,4.29236c4.73277,2.77239 13.21476,3.60204 25.45357,2.46172l38.65469,-3.34325c9.09994,-0.78188 17.1011,-1.1506 23.96754,-1.10885c6.88386,0.03193 13.72014,0.81402 20.52137,2.32773c6.78001,1.53716 13.3865,4.17108 19.82057,7.9241c14.34703,8.33659 21.73562,16.67185 22.14722,24.99326c0.42634,8.34755 -7.38097,17.16052 -23.42081,26.46124zM416.72229,505.13404c-15.9523,9.17097 -31.17231,14.00224 -45.6502,14.51121c-14.54378,0.53466 -28.51405,-3.04304 -41.89832,-10.75163l-106.60827,-62.02339l37.46166,-21.293l105.66247,61.01842c4.5818,2.70829 8.76696,4.46923 12.5517,5.29643c3.79345,0.82229 7.64875,0.10563 11.57084,-2.14128c3.91337,-2.24199 5.20934,-4.44267 3.87049,-6.59219c-1.36989,-2.1435 -4.42882,-4.5742 -9.20402,-7.29968l-105.66672,-60.92417l37.74595,-21.33856l106.79988,61.46753c13.3597,7.66504 19.59681,15.62802 18.6939,23.89874c-0.96276,8.32745 -9.40588,17.05131 -25.32937,26.17159zM331.04715,385.43421l51.07705,-28.6635c15.42569,-8.59836 30.24416,-12.5946 44.47773,-11.98984c14.15027,0.64027 28.47899,5.11798 42.98995,13.4195c14.64049,8.2055 22.73769,16.02621 24.29541,23.4485c1.51908,7.45557 -5.34846,15.45139 -20.60264,23.98744l-15.74081,8.83352l58.03511,32.76325l-38.12472,21.64407zM433.33509,398.21717c4.66465,-2.61986 7.43346,-4.91657 8.29394,-6.87158c0.92145,-1.98941 0.47903,-3.85241 -1.33216,-5.59771c-1.81119,-1.74531 -4.9782,-3.91985 -9.50975,-6.51871c-6.11293,-3.50937 -11.43037,-5.52713 -15.94963,-6.08924c-4.54048,-0.53866 -9.51131,0.70394 -14.9212,3.73272l-4.29012,2.40859l35.45688,20.19483zM436.79661,326.40053l51.22155,-28.10206c15.5952,-8.52176 30.51885,-12.474 44.77855,-11.88398c14.20142,0.58846 28.63018,4.91787 43.2901,12.97464c14.63267,8.04917 22.71446,15.74079 24.25901,23.07867c1.54946,7.34659 -5.30402,15.26558 -20.56914,23.76187l-15.87972,8.83151l58.3165,32.1223l-38.40477,21.59539zM539.56761,339.08322c4.75398,-2.62433 7.49398,-4.87034 8.23364,-6.73423c0.97482,-1.99655 0.56837,-3.85687 -1.25042,-5.57493c-1.75781,-1.75245 -4.9188,-3.89595 -9.47915,-6.44412c-6.14554,-3.44505 -11.50161,-5.42953 -16.05951,-5.95837c-4.56661,-0.52392 -9.55218,0.69255 -14.9643,3.67666l-4.33591,2.38849l35.57257,19.91143zM690.31925,348.93697l-147.19253,-80.70361l38.92713,-21.17821l122.35266,66.42584l40.05114,-22.34041l25.06052,13.40701zM785.27752,295.72658l-48.62899,-25.89906l-129.91161,-36.16804l38.55708,-20.87761l60.83027,20.78439l-39.05247,-32.55267l38.50549,-20.74518l67.79591,69.19851l48.6674,25.68221z" stroke-linecap="round"></path>
</g>
</g>
</g>
<g id="806ff011-b6d6-488f-8a61-b0463df63887">
<path style="stroke: rgb(193,193,193); stroke-width: 0; stroke-dasharray: none; stroke-linecap: butt; stroke-dashoffset: 0; stroke-linejoin: miter; stroke-miterlimit: 4; fill: rgb(114,114,114); fill-rule: nonzero; opacity: 1;" transform="matrix(1 0 0 1 -1095.044391 0)  translate(0, 0)" d="" stroke-linecap="round"></path>
</g>
<g id="05b3afe5-ee96-43a9-9aea-3ebe3f51293d">
<path style="stroke: rgb(193,193,193); stroke-width: 0; stroke-dasharray: none; stroke-linecap: butt; stroke-dashoffset: 0; stroke-linejoin: miter; stroke-miterlimit: 4; fill: rgb(193,193,193); fill-rule: nonzero; opacity: 1;" transform="matrix(1 0 0 1 -1095.044391 0)  translate(0, 0)" d="" stroke-linecap="round"></path>
</g>
<g id="a74feeee-3b59-4730-b852-9ee93521a4b1">
<path style="stroke: rgb(114,114,114); stroke-width: 0; stroke-dasharray: none; stroke-linecap: butt; stroke-dashoffset: 0; stroke-linejoin: round; stroke-miterlimit: 4; fill: rgb(114,114,114); fill-rule: nonzero; opacity: 1;" vector-effect="non-scaling-stroke" transform="matrix(1 0 0 1 -1095.044391 0)  translate(0, 0)" d="" stroke-linecap="round"></path>
</g>
<g id="16a2c5b9-4119-49ab-abfa-30036e32549e">
<g>
		<g id="6fb2d87d-4165-4e83-ab64-05e2e567951e">
<path style="stroke: rgb(193,193,193); stroke-width: 0; stroke-dasharray: none; stroke-linecap: butt; stroke-dashoffset: 0; stroke-linejoin: miter; stroke-miterlimit: 4; fill: rgb(255,255,255); fill-rule: nonzero; opacity: 1;" d="M150.94724,632.19149l-1.68519,97.08446l-23.73542,-13.28546l1.99021,-96.8909c-0.00468,-0.22821 -0.02708,-0.46569 -0.10681,-0.50744l-13.63552,-7.54576l1.46151,-66.21657l50.55465,28.14041l-1.16239,66.48607l-13.57986,-7.65207c-0.0443,-0.02319 -0.10585,0.15905 -0.10117,0.38725zM196.62867,755.67941l0.51083,-53.40602c-0.00046,-0.21471 -0.06715,-0.47538 -0.11145,-0.49858l-7.81337,-4.35061c-0.06201,-0.03247 -0.05733,0.19574 -0.06573,0.40581l-0.50155,53.3883l-23.76789,-13.22344l2.56192,-164.08131l23.14654,13.20288l-0.89075,63.91922c-0.0219,0.21429 -0.04802,0.41508 0.02286,0.45219l7.72858,4.34007c0.09745,0.05102 0.14129,-0.14049 0.16318,-0.35478l0.7735,-63.86774l23.30847,12.91517l-1.38917,164.51474zM246.44165,686.15324l23.84549,13.13991l-0.20547,31.32894l-23.85945,-13.3504c-0.06201,-0.03247 -0.06201,-0.03247 -0.0611,0.39695l-0.07926,12.37508l25.09722,14.13393l-0.36566,53.77551l-48.19402,-27.60426l1.32377,-164.60542l47.6769,25.35813l-0.39254,56.88816l-24.75037,-13.54597l-0.0803,11.23447c-0.01722,0.4425 -0.01722,0.4425 0.0448,0.47497z" stroke-linecap="round"></path>
</g>
</g>
</g>
<g id="9b240670-6691-45da-abb4-b6c3f8171a2d">
<path style="stroke: rgb(193,193,193); stroke-width: 0; stroke-dasharray: none; stroke-linecap: butt; stroke-dashoffset: 0; stroke-linejoin: miter; stroke-miterlimit: 4; fill: rgb(114,114,114); fill-rule: nonzero; opacity: 1;" transform="matrix(1 0 0 1 -1095.044391 0)  translate(0, 0)" d="" stroke-linecap="round"></path>
</g>
<g id="f0f31798-792c-4f89-92ac-36bf4f684f46">
<path style="stroke: rgb(193,193,193); stroke-width: 0; stroke-dasharray: none; stroke-linecap: butt; stroke-dashoffset: 0; stroke-linejoin: miter; stroke-miterlimit: 4; fill: rgb(193,193,193); fill-rule: nonzero; opacity: 1;" transform="matrix(1 0 0 1 -1095.044391 0)  translate(0, 0)" d="" stroke-linecap="round"></path>
</g>
<g id="32898dd5-1e13-4878-a828-53dc7024c241">
<path style="stroke: rgb(114,114,114); stroke-width: 0; stroke-dasharray: none; stroke-linecap: butt; stroke-dashoffset: 0; stroke-linejoin: round; stroke-miterlimit: 4; fill: rgb(114,114,114); fill-rule: nonzero; opacity: 1;" vector-effect="non-scaling-stroke" transform="matrix(1 0 0 1 -1095.044391 0)  translate(0, 0)" d="" stroke-linecap="round"></path>
</g>
<g id="93b4145e-d886-41d7-b031-4a5cc2876281">
<g>
		<g id="d542eae5-0770-425d-afe7-677c5e8f9881">
<path style="stroke: rgb(193,193,193); stroke-width: 0; stroke-dasharray: none; stroke-linecap: butt; stroke-dashoffset: 0; stroke-linejoin: miter; stroke-miterlimit: 4; fill: rgb(255,255,255); fill-rule: nonzero; opacity: 1;" d="M379.40111,653.67366l0.27167,54.48861l-38.76089,23.58209l0.27416,51.24557l-38.27043,23.6611l-1.3658,-198.19786l77.87798,-44.97578l0.37106,76.37357l-39.31308,23.40017l0.06019,13.65302zM382.90598,684.75691l-0.54857,-122.96636l38.41755,-22.15187l0.3415,106.75455c-0.00248,10.3791 3.59312,13.40005 7.05275,11.31373c3.44762,-2.06745 6.91362,-9.33473 6.79083,-19.35886l-0.24204,-106.74423l38.45014,-22.13643l0.04829,120.88768c0.31131,53.66028 -22.05838,94.28982 -44.75099,108.24782c-22.55711,13.91172 -45.2981,0.68375 -45.55947,-53.84602zM536.9114,549.80885l0.16853,112.9216l-38.31324,23.39526l-0.23696,-113.63848c-0.00509,-0.24181 -0.14396,-0.41506 -0.20914,-0.38764l-22.35286,13.24121l-0.11013,-77.41622l83.49699,-47.97223l0.06243,76.09224l-22.33226,13.1589c-0.06003,0.036 -0.1956,0.37382 -0.17336,0.60535zM562.22495,577.04888l-0.02995,-118.71822l38.36437,-22.085l0.07311,103.13758c0.06792,10.01039 3.41314,13.04157 6.98767,10.93299c3.54366,-2.10173 6.96503,-9.13235 7.02568,-18.92834l-0.15885,-103.20277l38.25808,-22.24281l0.26522,117.39945c0.08872,52.16133 -22.69923,91.95729 -45.28887,105.62033c-22.87437,13.86877 -45.40624,1.08674 -45.49647,-51.91321zM746.17438,404.72984c0.13213,28.39506 -8.48353,62.50236 -26.04577,72.94072l-6.86435,4.06974l0.02035,0.96726l22.84,-13.55666l15.05071,64.66715l-46.43647,27.83514l-10.97129,-69.60877l10.71332,-6.34289c5.02391,-2.97773 7.54051,-13.15043 7.36592,-21.74427c0.06382,-8.70183 -2.47436,-15.88994 -7.40049,-12.9825l-10.57267,6.24688c-0.08576,0.05143 -0.18359,0.35496 -0.23853,0.63277l0.23261,110.30626l-37.05243,22.17278l-0.31386,-186.58544l65.29525,-38.32806c16.0957,-9.50061 24.22471,12.16332 24.37771,39.30988zM789.21607,401.87781l38.62187,-23.11393l0.31242,34.66509l-38.72651,23.21166c-0.10291,0.06171 -0.10291,0.06171 -0.10989,0.55563l0.08074,13.80394l40.81909,-24.46653l0.53972,59.50501l-78.51476,47.14165l-0.93844,-185.19645l77.23683,-46.0255l0.5612,62.94356l-40.08839,23.99337l0.05359,12.57258c-0.06187,0.53849 -0.06187,0.53849 0.15254,0.40992z" stroke-linecap="round"></path>
</g>
</g>
</g>
<g id="3860e175-214a-47f8-88c8-1d927e9b0298">
<path style="stroke: rgb(193,193,193); stroke-width: 0; stroke-dasharray: none; stroke-linecap: butt; stroke-dashoffset: 0; stroke-linejoin: miter; stroke-miterlimit: 4; fill: rgb(114,114,114); fill-rule: nonzero; opacity: 1;" transform="matrix(1 0 0 1 -1095.044391 0)  translate(0, 0)" d="" stroke-linecap="round"></path>
</g>
<g id="92a3eee6-c637-4f1f-9ea9-7b74c6a46725">
<path style="stroke: rgb(193,193,193); stroke-width: 0; stroke-dasharray: none; stroke-linecap: butt; stroke-dashoffset: 0; stroke-linejoin: miter; stroke-miterlimit: 4; fill: rgb(193,193,193); fill-rule: nonzero; opacity: 1;" transform="matrix(1 0 0 1 -1095.044391 0)  translate(0, 0)" d="" stroke-linecap="round"></path>
</g>

  </svg></svg></g></g></svg></g></svg>